<svg version="1.0" xmlns="http://www.w3.org/2000/svg"  viewBox="0 0 1840 329"><path d="M275.5 1.7c-30.1 2.7-66 17.8-88.4 37.2-10.2 8.9-9 8.4-16.4 5.6-24.7-9.3-58.7-9.2-84.9.1-36.6 13.1-66.1 43-78.2 79.4-8.2 24.8-8.6 53.1-1 77.8 11.8 38.9 42.8 70.6 81.7 83.6 25.6 8.5 57.5 8.2 82.4-.9l6.7-2.4 7 6c21.6 18.4 47.2 31 75.6 37 14.1 3.1 46.5 3.4 60.5.6 61.1-12.1 108.3-53.5 126.8-111.2 5.7-18.1 7.2-28.2 7.2-50.5 0-16.2-.4-21.4-2.3-30.7-8.8-43.6-33.3-80.3-70.2-105-30.5-20.5-68.7-30-106.5-26.6zm39.8 37.9c44.7 8.5 82.5 41.7 97.1 85.5 4.6 14 5.9 22.3 5.9 39.4.1 17.5-1.1 25-6.4 41-10.8 32.4-37.5 61.5-69.4 75.5-19.4 8.4-42.3 12.2-62 10.2-32.9-3.5-60.6-17.2-82.4-40.9-19.9-21.6-30.3-46.2-33.7-79.6l-.5-5.7h-36.2l.7 10.2c1.6 22.5 7.2 42.9 17.7 63.6 6.3 12.5 6.6 13.2 4.5 13.7-1.1.3-4.1.9-6.6 1.5-2.5.5-9.7 1-16.1 1-46.2.1-84.3-34.2-89.9-80.9-2.7-22.2 4.6-47.5 19.1-65.7 30.1-37.9 84.3-45.7 123.4-17.9 7.8 5.6 19.2 17.4 24.3 25.3 7.8 12.1 14.2 31.9 14.2 44.4v4.8h36v-6.9c0-13.5-4.7-32.9-11.6-48-5.1-11.1-13.8-23.6-23.6-33.7-4.8-5-8.8-9.4-8.8-9.7 0-1.3 14.8-11 23-15.2 25.9-13 53.7-17.1 81.3-11.9zM1526 151.5V256h34v-19.2l6.7 6.2c26.7 25 73.1 20.1 96.9-10.2 6.6-8.5 11.7-18.8 14.5-29.4 3-11.2 2.9-30.7 0-41.9-6.8-25.7-23.1-44-46.6-52.1-7.2-2.5-9.4-2.8-21.5-2.9-10.7 0-14.7.4-19 1.9-9.7 3.3-19 8.8-25.1 14.8l-5.9 5.8V47h-34v104.5zm84.1-13.5c16.9 3.2 31.1 17.4 34.8 34.8 6.5 30.9-19.9 59.8-49.6 54.3-35.8-6.6-49.3-51.3-23.4-77.2 10.4-10.3 24-14.6 38.2-11.9zM1273.5 107c-10.8 2.3-20.7 8-28 16.3l-4.5 5.2V109h-34v147h34v-39.3c0-21.5.5-42.4 1-46.2 1.3-9.2 6.7-20.2 12.2-24.9 14.4-12.4 39.4-9.3 48.4 5.9 5.1 8.9 5.4 11.4 5.4 59.7V256h35.1l-.4-51.2c-.3-44.2-.6-52.2-2.1-57.7-7-26.6-26.5-41.3-54.6-41-4.7.1-10.3.5-12.5.9zM1752.1 107c-7.4 1.6-14.2 4.1-21.6 7.9-8.7 4.5-22.4 17.8-27.8 27.1-7.4 12.9-11.4 30.7-10.3 46.2 2.2 29.1 16.2 51.2 40.1 62.8 10.9 5.2 17.9 7 31.5 7.7 28.4 1.4 51.6-9.3 65.9-30.5 2.4-3.5 3.9-6.7 3.5-7.2-.5-.4-6.9-3.6-14.2-7.1l-13.3-6.2-1.6 2.4c-.9 1.3-4.4 5.1-7.8 8.5-6.8 6.8-13.6 10-23.6 11.1-20.9 2.2-43.1-13.7-45.6-32.8l-.6-3.9H1839v-9.9c0-23.4-7.4-42.7-21.9-57-8-7.9-16.8-13.2-27.6-16.7-6.5-2.1-10.4-2.7-20.5-3-6.9-.2-14.5.1-16.9.6zm22.1 28.1c14.9 3.1 27.3 15.2 30.3 29.6l.7 3.3h-78.4l.7-3.3c2.1-9.5 10.8-20.5 20.4-25.6 9.3-4.9 16.5-6 26.3-4zM1368.3 159.2c.4 56 .3 55.4 7.5 69.3 4.8 9.2 14.6 19 23.2 23.2 9.5 4.7 17 6.4 30.1 7 38 1.8 63-17.8 67.9-53.2.5-3.9 1-27.1 1-51.8V109h-34.9l-.3 47.2-.3 47.3-2.9 6.3c-5.6 12-15.5 17.9-29 17-15.4-1-25-11-27.6-28.4-.5-3.8-1-25.5-1-48.2V109h-34.1l.4 50.2zM608 111.4c-16.7 3.6-31.1 12.5-40.1 24.9l-2.9 4V113h-18v206h18l.2-44 .3-44 4.2 5.4c13.9 18 41.5 27.2 66.3 22.2 10.9-2.2 16.5-4.6 26.7-11.3 30.9-20.2 41.2-63.8 23.2-98.3-9.2-17.8-23.9-29.9-43.4-36-9-2.7-25.4-3.5-34.5-1.6zm25.5 16.8c24.2 5.2 42.5 29 42.8 55.8.2 17.9-5 30.9-17.2 43.1-9.1 9-17.3 13.4-29.4 15.5-24.4 4.3-48.9-8.4-59.6-30.9-4.7-9.8-6.1-16-6.1-27 0-25.1 15.6-47.5 38.5-55.2 10.3-3.4 19.4-3.8 31-1.3zM757.5 111.5c-16.9 3.7-30.4 14.1-37.8 29-1.4 2.7-2.8 6.2-3.2 7.6-.6 2.5-.4 2.7 7.5 4.9 4.4 1.3 8.2 2.1 8.3 1.9.2-.2 1.8-3.4 3.5-7.1 7.8-16.2 26.1-24.7 44.7-20.8 17.4 3.6 26.5 14.4 27.3 32.6l.4 9.2-3.8.6c-2.2.3-14.2 1.7-26.9 3.1-25.3 2.8-35.4 4.9-44.2 9.2-7.6 3.6-15.7 11.7-19.1 19-2.4 5.3-2.7 6.9-2.7 17.8 0 11.5.1 12.3 3.2 18.6 9 18.2 30.8 26.5 56.1 21.3 12.4-2.5 21.4-7.4 30.5-16.5l7.7-7.8v23l8.3-.3 8.2-.3.3-49c.2-54.5-.3-60.9-5.7-71.9-4.5-9-13-17-22.4-21-10.5-4.3-28.4-5.7-40.2-3.1zm50.5 82.7c0 15.3-4.1 26.1-13.4 35.4-20.5 20.4-57.1 18.4-64.5-3.5-5.2-15.5 6.1-30.8 25.9-35.1 6-1.2 42.3-5.7 48.3-5.9l3.7-.1v9.2zM908.2 111c-27.9 5.1-49.3 25-56.9 53-2.4 8.9-2.4 30 0 39 4 15.2 13.9 30.3 25.6 39.1 13.9 10.6 25.7 14.4 44.6 14.3 11.3 0 14-.4 21-2.7 13.2-4.3 23.5-11.4 30.8-21l3.7-4.9v14.8c0 9.2-.6 17.6-1.5 21.9-4.2 19.8-17.6 33.9-37.1 39-7.5 1.9-23 1.9-31.3 0-13.6-3.2-26.1-11.8-33.5-23-2.1-3-3.9-5.5-4.1-5.5-1.1 0-13.5 9.3-13.5 10.1 0 2 7.9 12.6 13.1 17.4 14.7 13.8 34.8 20.4 58.4 19.2 13.3-.7 20.4-2.5 31.2-7.7 19.6-9.6 32.1-28.3 35.3-53 .7-5.7 1-31.5.8-78l-.3-69.5-8.7-.3-8.8-.3V139.2l-3.9-5.2c-10.7-14.2-28.6-22.8-49.1-23.5-5.8-.2-12.9 0-15.8.5zm28.8 17.7c24.1 6.6 41 29 41 54.5 0 16.8-5 29.1-16.7 40.7-9.4 9.3-17.5 13.6-29.9 15.8-29.2 5-56.5-14.2-62.9-44.2-1.9-8.8-1.9-15.2 0-24 6.8-32.2 37.4-51.4 68.5-42.8zM1081.8 111c-28.7 4.9-50.2 23.8-59 52-3 9.9-3.3 31.8-.5 42 7 25.5 27.4 46 52.2 52.6 14.8 3.9 34.6 2.6 48.7-3.1 14.6-5.9 29.4-19.4 36.6-33.3 6.5-12.4 8.6-21.4 8.6-36.2 0-15-1.5-21.6-7.9-34.6-14-28.6-46.5-44.8-78.7-39.4zm27.1 17.7c15 4.1 28.9 15.6 35.3 29.3 4.8 10.2 6.3 16.8 6.2 28-.3 26.9-18.1 49.9-43.4 56.1-7.4 1.8-20.2 1.6-27.5-.5-25.5-7.4-43-33.1-41.2-60.5 1.2-18.3 10.7-35.1 25.5-45.3 12.7-8.8 29.6-11.4 45.1-7.1z"/></svg>